<svg width="186" height="31" viewBox="0 0 186 31" fill="none" xmlns="http://www.w3.org/2000/svg">
<path d="M184.832 24.1396C180.575 24.5675 177.342 24.7802 175.135 24.7802C174.801 24.7802 174.522 24.6366 174.299 24.3522C174.077 24.0678 173.964 23.7117 173.964 23.2838V21.5747H185.5V13.6701C185.5 11.5331 185.026 9.86125 184.079 8.64924C183.131 7.43989 181.823 6.83388 180.15 6.83388H173.463C171.791 6.83388 170.482 7.43989 169.534 8.64924C168.586 9.86125 168.113 11.5331 168.113 13.6701V23.9243C168.113 25.8619 168.571 27.4142 169.484 28.581C170.397 29.7505 171.612 30.3326 173.128 30.3326C176.627 30.3326 180.529 30.0482 184.83 29.4794V24.1396H184.832ZM178.312 12.1763C179.204 12.1763 179.649 12.7478 179.649 13.8853V16.235H173.964V13.8853C173.964 12.7478 174.409 12.1763 175.302 12.1763H178.312ZM154.071 24.1396C153.737 24.1396 153.458 23.9961 153.235 23.7117C153.013 23.4273 152.9 23.0711 152.9 22.6432V14.7385C152.9 13.601 153.345 13.0295 154.238 13.0295H159.253V23.2838C157.759 23.8552 156.422 24.1396 155.24 24.1396H154.069H154.071ZM165.106 29.9073V0.000358582H159.255V7.26447H152.401C150.729 7.26447 149.421 7.87047 148.472 9.07982C147.524 10.2918 147.051 11.9637 147.051 14.1006V23.927C147.051 25.8646 147.509 27.4168 148.422 28.5837C149.335 29.7531 150.55 30.3352 152.066 30.3352H153.57C154.327 30.3352 155.259 30.1279 156.361 29.7159C157.464 29.304 158.539 28.6554 159.588 27.773L159.922 29.91H165.106V29.9073ZM128.327 13.0322C129.397 12.9471 130.807 12.8195 132.556 12.6468C134.305 12.4767 135.905 12.3916 137.355 12.3916C137.689 12.3916 137.968 12.5351 138.191 12.8195C138.413 13.1039 138.526 13.4601 138.526 13.888V15.597H131.672C130.156 15.597 128.941 16.1818 128.028 17.3486C127.113 18.5181 126.657 20.0703 126.657 22.0053V23.927C126.657 25.8646 127.115 27.4168 128.028 28.5837C128.941 29.7531 130.156 30.3352 131.672 30.3352H132.843C133.6 30.3352 134.532 30.1279 135.634 29.7159C136.737 29.304 137.812 28.6554 138.86 27.773L139.195 29.91H144.379V13.2475C144.379 11.3098 143.921 9.75759 143.008 8.59077C142.093 7.42394 140.878 6.8392 139.364 6.8392C136.088 6.8392 132.408 7.12359 128.329 7.69505V13.0348L128.327 13.0322ZM133.677 24.3549C133.342 24.3549 133.064 24.2114 132.841 23.927C132.618 23.6426 132.506 23.2864 132.506 22.8585V22.4306C132.506 22.0026 132.618 21.6465 132.841 21.3621C133.064 21.0777 133.342 20.9342 133.677 20.9342H138.526V23.4964C137.032 24.0679 135.695 24.3522 134.513 24.3522H133.677V24.3549ZM126.489 13.4574V6.83388H124.985C122.89 6.83388 120.883 7.90237 118.968 10.0393L118.633 7.2618H113.449V29.9073H119.3V14.7385C120.794 13.8853 122.243 13.4574 123.647 13.4574H126.489ZM111.109 24.3549H106.762C106.427 24.3549 106.149 24.2114 105.926 23.927C105.703 23.6426 105.591 23.2864 105.591 22.8585V13.0322H109.77V7.26447H105.591V2.13733H100.408L99.7401 7.26447H97.7329V13.0322H99.7401V23.927C99.7401 25.8646 100.198 27.4168 101.111 28.5837C102.024 29.7531 103.239 30.3352 104.755 30.3352C106.829 30.3352 108.946 30.1917 111.107 29.9073V24.3522L111.109 24.3549ZM90.0453 29.9073H96.0627V23.4991H90.0453V29.9073ZM76.3362 24.1396C76.0013 24.1396 75.7226 23.9961 75.5 23.7117C75.2774 23.4273 75.1651 23.0711 75.1651 22.6432V7.2618H69.3141V23.9243C69.3141 25.8619 69.7696 27.4142 70.6848 28.581C71.5979 29.7505 72.8127 30.3326 74.329 30.3326H75.8328C76.5899 30.3326 77.5217 30.1252 78.6241 29.7133C79.7265 29.3013 80.8019 28.6528 81.8502 27.7703L82.1851 29.9073H87.3684V7.2618H81.5174V23.2838C80.024 23.8552 78.6865 24.1396 77.5051 24.1396H76.3341H76.3362ZM54.9394 24.1396C54.6045 24.1396 54.3258 23.9961 54.1032 23.7117C53.8806 23.4273 53.7683 23.0711 53.7683 22.6432V14.7385C53.7683 13.601 54.2134 13.0295 55.1058 13.0295H60.1206V23.2838C58.6272 23.8552 57.2897 24.1396 56.1083 24.1396H54.9373H54.9394ZM65.9716 29.9073V0.000358582H60.1206V7.26447H53.2671C51.5947 7.26447 50.2864 7.87047 49.338 9.07982C48.3895 10.2892 47.9173 11.9637 47.9173 14.1006V23.927C47.9173 25.8646 48.3749 27.4168 49.288 28.5837C50.2012 29.7531 51.4159 30.3352 52.9322 30.3352H54.436C55.1931 30.3352 56.125 30.1279 57.2273 29.7159C58.3297 29.304 59.4051 28.6554 60.4534 27.773L60.7883 29.91H65.9716V29.9073ZM45.9102 23.927H33.372V17.7314H43.2353V11.751H33.372V5.98334H45.9102V0.0030191H27.3546V29.91H45.9102V23.9296V23.927Z" fill="#662D91"/>
<path d="M7.25068 4.95074H0.5V29.9086H7.25068V4.95074Z" fill="url(#paint0_linear_2001_1143)"/>
<path d="M14.9757 6.10352e-05H8.22498V29.9087H14.9757V6.10352e-05Z" fill="url(#paint1_linear_2001_1143)"/>
<path d="M22.6989 4.94555H15.9482V29.9087H22.6989V4.94555Z" fill="url(#paint2_linear_2001_1143)"/>
<defs>
<linearGradient id="paint0_linear_2001_1143" x1="3.87638" y1="29.9112" x2="3.87638" y2="4.95074" gradientUnits="userSpaceOnUse">
<stop stop-color="#662D91"/>
<stop offset="0.18" stop-color="#814C86"/>
<stop offset="0.41" stop-color="#9E6E7A"/>
<stop offset="0.63" stop-color="#B38672"/>
<stop offset="0.83" stop-color="#BF946D"/>
<stop offset="1" stop-color="#C49A6C"/>
</linearGradient>
<linearGradient id="paint1_linear_2001_1143" x1="11.6014" y1="29.9114" x2="11.6014" y2="0.00271012" gradientUnits="userSpaceOnUse">
<stop stop-color="#662D91"/>
<stop offset="0.18" stop-color="#814C86"/>
<stop offset="0.41" stop-color="#9E6E7A"/>
<stop offset="0.63" stop-color="#B38672"/>
<stop offset="0.83" stop-color="#BF946D"/>
<stop offset="1" stop-color="#C49A6C"/>
</linearGradient>
<linearGradient id="paint2_linear_2001_1143" x1="19.3246" y1="29.9113" x2="19.3246" y2="4.9482" gradientUnits="userSpaceOnUse">
<stop stop-color="#662D91"/>
<stop offset="0.18" stop-color="#814C86"/>
<stop offset="0.41" stop-color="#9E6E7A"/>
<stop offset="0.63" stop-color="#B38672"/>
<stop offset="0.83" stop-color="#BF946D"/>
<stop offset="1" stop-color="#C49A6C"/>
</linearGradient>
</defs>
</svg>
