<svg width="135" height="22" viewBox="0 0 135 22" fill="none" xmlns="http://www.w3.org/2000/svg">
<path d="M133.685 17.5067C130.597 17.8171 128.253 17.9713 126.652 17.9713C126.409 17.9713 126.207 17.8672 126.046 17.6609C125.884 17.4547 125.803 17.1964 125.803 16.886V15.6465H134.169V9.91378C134.169 8.36397 133.825 7.15149 133.139 6.2725C132.451 5.39543 131.502 4.95593 130.289 4.95593H125.439C124.227 4.95593 123.278 5.39543 122.59 6.2725C121.902 7.15149 121.56 8.36397 121.56 9.91378V17.3506C121.56 18.7558 121.891 19.8815 122.554 20.7278C123.216 21.5759 124.097 21.9981 125.196 21.9981C127.734 21.9981 130.564 21.7918 133.683 21.3793V17.5067H133.685ZM128.956 8.83046C129.603 8.83046 129.926 9.24489 129.926 10.0699V11.7739H125.803V10.0699C125.803 9.24489 126.126 8.83046 126.773 8.83046H128.956ZM111.376 17.5067C111.133 17.5067 110.931 17.4026 110.769 17.1964C110.608 16.9901 110.526 16.7318 110.526 16.4214V10.6887C110.526 9.86367 110.849 9.44923 111.496 9.44923H115.133V16.886C114.05 17.3004 113.08 17.5067 112.224 17.5067H111.374H111.376ZM119.378 21.6897V0H115.135V5.26821H110.164C108.952 5.26821 108.003 5.7077 107.315 6.58477C106.627 7.46377 106.285 8.67624 106.285 10.2261V17.3525C106.285 18.7577 106.617 19.8835 107.279 20.7297C107.941 21.5778 108.822 22 109.922 22H111.012C111.561 22 112.237 21.8496 113.037 21.5509C113.836 21.2521 114.616 20.7817 115.376 20.1418L115.619 21.6916H119.378V21.6897ZM92.7053 9.45116C93.4806 9.38947 94.5034 9.29694 95.772 9.17165C97.0406 9.04828 98.2007 8.98659 99.2521 8.98659C99.4949 8.98659 99.6971 9.09068 99.8585 9.29694C100.02 9.50319 100.101 9.7615 100.101 10.0718V11.3113H95.1309C94.0312 11.3113 93.1503 11.7354 92.488 12.5816C91.8243 13.4298 91.4939 14.5555 91.4939 15.9588V17.3525C91.4939 18.7577 91.8258 19.8835 92.488 20.7297C93.1503 21.5778 94.0312 22 95.1309 22H95.9802C96.5293 22 97.2051 21.8496 98.0046 21.5509C98.8041 21.2521 99.5839 20.7817 100.344 20.1418L100.587 21.6916H104.346V9.6073C104.346 8.20205 104.014 7.07632 103.352 6.23009C102.688 5.38386 101.807 4.95978 100.709 4.95978C98.3334 4.95978 95.6649 5.16604 92.7068 5.58048V9.45308L92.7053 9.45116ZM96.5851 17.6628C96.3422 17.6628 96.1401 17.5588 95.9787 17.3525C95.8173 17.1462 95.7358 16.8879 95.7358 16.5776V16.2672C95.7358 15.9569 95.8173 15.6986 95.9787 15.4923C96.1401 15.2861 96.3422 15.182 96.5851 15.182H100.101V17.0402C99.0183 17.4547 98.0483 17.6609 97.1915 17.6609H96.5851V17.6628ZM91.3718 9.75957V4.95593H90.2811C88.7621 4.95593 87.3064 5.73084 85.9171 7.28065L85.6742 5.26628H81.9151V21.6897H86.1584V10.6887C87.2415 10.0699 88.293 9.75957 89.3112 9.75957H91.3718ZM80.218 17.6628H77.0653C76.8224 17.6628 76.6203 17.5588 76.4589 17.3525C76.2975 17.1462 76.216 16.8879 76.216 16.5776V9.45116H79.2466V5.26821H76.216V1.54981H72.4569L71.9727 5.26821H70.517V9.45116H71.9727V17.3525C71.9727 18.7577 72.3045 19.8835 72.9668 20.7297C73.629 21.5778 74.5099 22 75.6096 22C77.1136 22 78.6492 21.8959 80.2165 21.6897V17.6609L80.218 17.6628ZM64.9416 21.6897H69.3057V17.0422H64.9416V21.6897ZM54.9992 17.5067C54.7564 17.5067 54.5542 17.4026 54.3928 17.1964C54.2314 16.9901 54.1499 16.7318 54.1499 16.4214V5.26628H49.9066V17.3506C49.9066 18.7558 50.2369 19.8815 50.9007 20.7278C51.5629 21.5759 52.4439 21.9981 53.5435 21.9981H54.6342C55.1833 21.9981 55.8591 21.8477 56.6586 21.5489C57.458 21.2501 58.2379 20.7798 58.9982 20.1398L59.2411 21.6897H63.0002V5.26628H58.7569V16.886C57.6738 17.3004 56.7038 17.5067 55.847 17.5067H54.9977H54.9992ZM39.4815 17.5067C39.2386 17.5067 39.0365 17.4026 38.875 17.1964C38.7136 16.9901 38.6322 16.7318 38.6322 16.4214V10.6887C38.6322 9.86367 38.955 9.44923 39.6021 9.44923H43.2391V16.886C42.156 17.3004 41.186 17.5067 40.3292 17.5067H39.4799H39.4815ZM47.4824 21.6897V0H43.2391V5.26821H38.2686C37.0558 5.26821 36.107 5.7077 35.4191 6.58477C34.7312 7.46184 34.3888 8.67624 34.3888 10.2261V17.3525C34.3888 18.7577 34.7207 19.8835 35.3829 20.7297C36.0451 21.5778 36.9261 22 38.0258 22H39.1164C39.6655 22 40.3413 21.8496 41.1408 21.5509C41.9403 21.2521 42.7202 20.7817 43.4804 20.1418L43.7233 21.6916H47.4824V21.6897ZM32.9331 17.3525H23.84V12.8592H30.9932V8.52204H23.84V4.33909H32.9331V0.00192951H19.476V21.6916H32.9331V17.3544V17.3525Z" fill="white"/>
<path d="M4.89585 3.58984H0V21.6902H4.89585V3.58984Z" fill="url(#paint0_linear_2001_1542)"/>
<path d="M10.4984 0H5.60254V21.6909H10.4984V0Z" fill="url(#paint1_linear_2001_1542)"/>
<path d="M16.0996 3.58594H11.2037V21.6902H16.0996V3.58594Z" fill="url(#paint2_linear_2001_1542)"/>
<defs>
<linearGradient id="paint0_linear_2001_1542" x1="2.44868" y1="21.6922" x2="2.44868" y2="3.58984" gradientUnits="userSpaceOnUse">
<stop stop-color="#662D91"/>
<stop offset="0.18" stop-color="#814C86"/>
<stop offset="0.41" stop-color="#9E6E7A"/>
<stop offset="0.63" stop-color="#B38672"/>
<stop offset="0.83" stop-color="#BF946D"/>
<stop offset="1" stop-color="#C49A6C"/>
</linearGradient>
<linearGradient id="paint1_linear_2001_1542" x1="8.05122" y1="21.6928" x2="8.05122" y2="0.00192122" gradientUnits="userSpaceOnUse">
<stop stop-color="#662D91"/>
<stop offset="0.18" stop-color="#814C86"/>
<stop offset="0.41" stop-color="#9E6E7A"/>
<stop offset="0.63" stop-color="#B38672"/>
<stop offset="0.83" stop-color="#BF946D"/>
<stop offset="1" stop-color="#C49A6C"/>
</linearGradient>
<linearGradient id="paint2_linear_2001_1542" x1="13.6524" y1="21.6921" x2="13.6524" y2="3.58786" gradientUnits="userSpaceOnUse">
<stop stop-color="#662D91"/>
<stop offset="0.18" stop-color="#814C86"/>
<stop offset="0.41" stop-color="#9E6E7A"/>
<stop offset="0.63" stop-color="#B38672"/>
<stop offset="0.83" stop-color="#BF946D"/>
<stop offset="1" stop-color="#C49A6C"/>
</linearGradient>
</defs>
</svg>
